<?xml version="1.0" encoding="UTF-8"?>
<svg xmlns="http://www.w3.org/2000/svg" xmlns:xlink="http://www.w3.org/1999/xlink" width="32px" height="36px" viewBox="0 0 32 36" version="1.1">
<g id="surface1">
<path style=" stroke:none;fill-rule:nonzero;fill:rgb(0%,0%,0%);fill-opacity:1;" d="M 16.28125 36 L 16.269531 36 C 10.832031 35.964844 6.652344 34.191406 3.839844 30.738281 C 1.34375 27.660156 0.0546875 23.378906 0.0117188 18.015625 L 0.0117188 17.988281 C 0.0546875 12.621094 1.34375 8.34375 3.84375 5.265625 C 6.652344 1.808594 10.835938 0.0351562 16.269531 0 L 16.292969 0 C 20.460938 0.0273438 23.949219 1.085938 26.65625 3.144531 C 29.203125 5.082031 30.996094 7.839844 31.984375 11.347656 L 28.886719 12.199219 C 27.210938 6.261719 22.96875 3.226562 16.277344 3.179688 C 11.859375 3.210938 8.515625 4.582031 6.34375 7.253906 C 4.316406 9.757812 3.265625 13.371094 3.226562 18 C 3.265625 22.628906 4.316406 26.242188 6.347656 28.746094 C 8.519531 31.421875 11.863281 32.792969 16.28125 32.820312 C 20.265625 32.792969 22.898438 31.875 25.089844 29.753906 C 27.589844 27.335938 27.546875 24.363281 26.746094 22.558594 C 26.273438 21.492188 25.417969 20.605469 24.261719 19.933594 C 23.972656 21.960938 23.320312 23.601562 22.3125 24.839844 C 20.96875 26.492188 19.0625 27.394531 16.648438 27.527344 C 14.824219 27.621094 13.0625 27.199219 11.699219 26.324219 C 10.085938 25.289062 9.140625 23.714844 9.039062 21.878906 C 8.941406 20.089844 9.660156 18.449219 11.058594 17.253906 C 12.394531 16.113281 14.277344 15.445312 16.5 15.316406 C 18.136719 15.226562 19.671875 15.300781 21.085938 15.53125 C 20.894531 14.417969 20.515625 13.53125 19.945312 12.894531 C 19.167969 12.015625 17.960938 11.570312 16.363281 11.558594 C 16.351562 11.558594 16.335938 11.558594 16.320312 11.558594 C 15.039062 11.558594 13.296875 11.910156 12.1875 13.539062 L 9.519531 11.773438 C 11.007812 9.589844 13.417969 8.386719 16.320312 8.386719 C 16.34375 8.386719 16.363281 8.386719 16.386719 8.386719 C 21.238281 8.417969 24.128906 11.351562 24.414062 16.46875 C 24.578125 16.539062 24.742188 16.609375 24.902344 16.683594 C 27.167969 17.734375 28.820312 19.324219 29.691406 21.285156 C 30.902344 24.019531 31.015625 28.472656 27.34375 32.027344 C 24.53125 34.738281 21.125 35.96875 16.292969 36 Z M 17.804688 18.464844 C 17.4375 18.464844 17.0625 18.476562 16.679688 18.496094 C 13.894531 18.652344 12.15625 19.914062 12.253906 21.710938 C 12.355469 23.59375 14.457031 24.46875 16.480469 24.359375 C 18.339844 24.265625 20.761719 23.546875 21.167969 18.796875 C 20.140625 18.574219 19.015625 18.464844 17.804688 18.464844 Z M 17.804688 18.464844 "/>
</g>
</svg>
