<svg width="106" height="105" xmlns="http://www.w3.org/2000/svg" xmlns:xlink="http://www.w3.org/1999/xlink" xml:space="preserve" overflow="hidden"><g transform="translate(-1440 -1479)"><g><g><g><path d="M65.4559 19.0342C56.6172 18.3301 48.3754 14.2971 42.3959 7.75001 41.2687 6.44362 39.296 6.29832 37.9895 7.42548 37.8735 7.52555 37.7651 7.63403 37.6651 7.75001 31.6855 14.2971 23.4437 18.3301 14.605 19.0342 12.9626 19.1881 11.7109 20.5729 11.7233 22.2225L11.7233 30.2667C11.7233 47.7551 22.8459 63.7526 38.2892 73.6518 39.35 74.3334 40.711 74.3334 41.7717 73.6518 57.2151 63.7501 68.3376 47.7551 68.3376 30.2667L68.3376 22.2225C68.35 20.5729 67.0983 19.1881 65.4559 19.0342ZM62.9209 30.2667C62.9209 44.1834 54.6301 58.2226 40.7425 67.8301L40.0309 68.3226 39.32 67.8301C25.4317 58.2217 17.1392 44.1792 17.1392 30.2667L17.1392 24.2242 18.1925 24.0575C26.0401 22.8166 33.3444 19.2789 39.1834 13.8909L40.03 13.1108 40.8776 13.8909C46.7163 19.2789 54.0202 22.8166 61.8676 24.0575L62.9209 24.2242Z" fill="#5B9BD5" transform="matrix(1.0125 0 0 1 1452 1492)"/><path d="M40.03 16.49C34.2441 21.5503 27.1993 24.9545 19.6392 26.3434L19.6392 30.2667C19.6392 43.1226 27.245 56.1526 40.0309 65.2751 52.8151 56.1542 60.4209 43.1234 60.4209 30.2667L60.4209 26.3434C52.8608 24.9545 45.816 21.5503 40.03 16.49ZM37.89 49.0276 29.4634 40.6001 32.3267 37.7367 37.89 43.3001 49.2834 31.9067 52.1467 34.7709Z" fill="#5B9BD5" transform="matrix(1.0125 0 0 1 1452 1492)"/></g></g></g><path d="M1443.5 1531.5C1443.5 1504.44 1465.66 1482.5 1493 1482.5 1520.34 1482.5 1542.5 1504.44 1542.5 1531.5 1542.5 1558.56 1520.34 1580.5 1493 1580.5 1465.66 1580.5 1443.5 1558.56 1443.5 1531.5Z" stroke="#5B9BD5" stroke-width="6.875" stroke-miterlimit="8" fill="none" fill-rule="evenodd"/><path d="M1522.5 1497C1522.5 1492.31 1526.31 1488.5 1531 1488.5 1535.69 1488.5 1539.5 1492.31 1539.5 1497 1539.5 1501.69 1535.69 1505.5 1531 1505.5 1526.31 1505.5 1522.5 1501.69 1522.5 1497Z" stroke="#5B9BD5" stroke-width="6.875" stroke-miterlimit="8" fill="#5B9BD5" fill-rule="evenodd"/><path d="M1446.5 1497C1446.5 1492.31 1450.31 1488.5 1455 1488.5 1459.69 1488.5 1463.5 1492.31 1463.5 1497 1463.5 1501.69 1459.69 1505.5 1455 1505.5 1450.31 1505.5 1446.5 1501.69 1446.5 1497Z" stroke="#5B9BD5" stroke-width="6.875" stroke-miterlimit="8" fill="#5B9BD5" fill-rule="evenodd"/><path d="M1522.5 1566C1522.5 1561.31 1526.31 1557.5 1531 1557.5 1535.69 1557.5 1539.5 1561.31 1539.5 1566 1539.5 1570.69 1535.69 1574.5 1531 1574.5 1526.31 1574.5 1522.5 1570.69 1522.5 1566Z" stroke="#5B9BD5" stroke-width="6.875" stroke-miterlimit="8" fill="#5B9BD5" fill-rule="evenodd"/><path d="M1446.5 1566C1446.5 1561.31 1450.31 1557.5 1455 1557.5 1459.69 1557.5 1463.5 1561.31 1463.5 1566 1463.5 1570.69 1459.69 1574.5 1455 1574.5 1450.31 1574.5 1446.5 1570.69 1446.5 1566Z" stroke="#5B9BD5" stroke-width="6.875" stroke-miterlimit="8" fill="#5B9BD5" fill-rule="evenodd"/></g></svg>