<svg width="96" height="96" xmlns="http://www.w3.org/2000/svg" xmlns:xlink="http://www.w3.org/1999/xlink" xml:space="preserve" overflow="hidden"><defs><clipPath id="clip0"><rect x="108" y="202" width="96" height="96"/></clipPath></defs><g clip-path="url(#clip0)" transform="translate(-108 -202)"><path d="M186.547 224.841C175.941 223.996 166.05 219.156 158.875 211.3 157.522 209.732 155.155 209.558 153.587 210.911 153.448 211.031 153.318 211.161 153.198 211.3 146.023 219.156 136.132 223.996 125.526 224.841 123.555 225.026 122.053 226.688 122.068 228.667L122.068 238.32C122.068 259.306 135.415 278.503 153.947 290.382 155.22 291.2 156.853 291.2 158.126 290.382 176.658 278.5 190.005 259.306 190.005 238.32L190.005 228.667C190.02 226.688 188.518 225.026 186.547 224.841ZM183.505 238.32C183.505 255.02 173.556 271.867 156.891 283.396L156.037 283.987 155.184 283.396C138.518 271.866 128.567 255.015 128.567 238.32L128.567 231.069 129.831 230.869C139.248 229.38 148.013 225.135 155.02 218.669L156.036 217.733 157.053 218.669C164.06 225.135 172.824 229.38 182.241 230.869L183.505 231.069Z" fill="#5B9BD5"/><path d="M156.036 221.788C149.093 227.86 140.639 231.945 131.567 233.612L131.567 238.32C131.567 253.747 140.694 269.383 156.037 280.33 171.378 269.385 180.505 253.748 180.505 238.32L180.505 233.612C171.433 231.945 162.979 227.86 156.036 221.788ZM153.468 260.833 143.356 250.72 146.792 247.284 153.468 253.96 167.14 240.288 170.576 243.725Z" fill="#5B9BD5"/></g></svg>