<svg width="107" height="104" xmlns="http://www.w3.org/2000/svg" xmlns:xlink="http://www.w3.org/1999/xlink" xml:space="preserve" overflow="hidden"><g transform="translate(-1637 -1478)"><path d="M1640.5 1530C1640.5 1503.21 1662.89 1481.5 1690.5 1481.5 1718.11 1481.5 1740.5 1503.21 1740.5 1530 1740.5 1556.79 1718.11 1578.5 1690.5 1578.5 1662.89 1578.5 1640.5 1556.79 1640.5 1530Z" stroke="#FF0000" stroke-width="6.875" stroke-miterlimit="8" fill="none" fill-rule="evenodd"/><path d="M1719.5 1495.5C1719.5 1491.08 1723.53 1487.5 1728.5 1487.5 1733.47 1487.5 1737.5 1491.08 1737.5 1495.5 1737.5 1499.92 1733.47 1503.5 1728.5 1503.5 1723.53 1503.5 1719.5 1499.92 1719.5 1495.5Z" stroke="#FF0000" stroke-width="6.875" stroke-miterlimit="8" fill="#FF0000" fill-rule="evenodd"/><path d="M1644.5 1495.5C1644.5 1491.08 1648.31 1487.5 1653 1487.5 1657.69 1487.5 1661.5 1491.08 1661.5 1495.5 1661.5 1499.92 1657.69 1503.5 1653 1503.5 1648.31 1503.5 1644.5 1499.92 1644.5 1495.5Z" stroke="#FF0000" stroke-width="6.875" stroke-miterlimit="8" fill="#FF0000" fill-rule="evenodd"/><path d="M1719.5 1564.5C1719.5 1560.08 1723.53 1556.5 1728.5 1556.5 1733.47 1556.5 1737.5 1560.08 1737.5 1564.5 1737.5 1568.92 1733.47 1572.5 1728.5 1572.5 1723.53 1572.5 1719.5 1568.92 1719.5 1564.5Z" stroke="#FF0000" stroke-width="6.875" stroke-miterlimit="8" fill="#FF0000" fill-rule="evenodd"/><path d="M1644.5 1564.5C1644.5 1560.08 1648.31 1556.5 1653 1556.5 1657.69 1556.5 1661.5 1560.08 1661.5 1564.5 1661.5 1568.92 1657.69 1572.5 1653 1572.5 1648.31 1572.5 1644.5 1568.92 1644.5 1564.5Z" stroke="#FF0000" stroke-width="6.875" stroke-miterlimit="8" fill="#FF0000" fill-rule="evenodd"/><g><g><g><path d="M65.4556 19.0358C56.6169 18.3306 48.3753 14.297 42.3957 7.74997 41.2685 6.4436 39.2958 6.2983 37.9894 7.42545 37.8734 7.52552 37.765 7.63399 37.6649 7.74997 31.6853 14.297 23.4437 18.3306 14.605 19.0358 12.9627 19.1893 11.711 20.5738 11.7233 22.2233L11.7233 30.2674C11.7233 47.7557 22.8458 63.7531 38.289 73.6523 39.3498 74.3339 40.7108 74.3339 41.7715 73.6523 57.2148 63.7498 68.3373 47.7557 68.3373 30.2674L68.3373 22.2233C68.3496 20.5738 67.0979 19.1893 65.4556 19.0358ZM62.9206 30.2674C62.9206 44.184 54.6298 58.224 40.7415 67.8314L40.0299 68.3239 39.319 67.8314C25.4307 58.2231 17.1391 44.1807 17.1391 30.2674L17.1391 24.2249 18.1924 24.0583C26.0398 22.8167 33.3438 19.2791 39.1832 13.8916L40.0299 13.1108 40.8774 13.8916C46.7163 19.2792 54.0201 22.8168 61.8673 24.0583L62.9206 24.2249Z" fill="#FF0000" transform="matrix(1 0 0 1 1650 1490)"/><path d="M40.0299 16.4908C34.2439 21.5508 27.1991 24.9551 19.6391 26.3441L19.6391 30.2674C19.6391 43.1232 27.2449 56.154 40.0299 65.2765 52.8148 56.1548 60.4206 43.124 60.4206 30.2674L60.4206 26.3441C52.8607 24.9551 45.8158 21.5508 40.0299 16.4908ZM49.1723 46.7498 46.309 49.6132 39.9757 43.2799 33.6424 49.6132 30.7841 46.7498 37.1174 40.4165 30.7841 34.0832 33.6474 31.2199 39.9807 37.5532 46.314 31.2199 49.1723 34.0832 42.839 40.4165Z" fill="#FF0000" transform="matrix(1 0 0 1 1650 1490)"/></g></g></g></g></svg>