<svg width="96" height="96" xmlns="http://www.w3.org/2000/svg" xmlns:xlink="http://www.w3.org/1999/xlink" xml:space="preserve" overflow="hidden"><defs><clipPath id="clip0"><rect x="287" y="241" width="96" height="96"/></clipPath></defs><g clip-path="url(#clip0)" transform="translate(-287 -241)"><path d="M365.547 263.843C354.94 262.997 345.051 258.156 337.875 250.3 336.522 248.732 334.155 248.558 332.587 249.911 332.448 250.031 332.318 250.161 332.198 250.3 325.022 258.156 315.133 262.997 304.526 263.843 302.555 264.027 301.053 265.689 301.068 267.668L301.068 277.321C301.068 298.307 314.415 317.504 332.947 329.383 334.22 330.201 335.853 330.201 337.126 329.383 355.658 317.5 369.005 298.307 369.005 277.321L369.005 267.668C369.02 265.689 367.518 264.027 365.547 263.843ZM362.505 277.321C362.505 294.021 352.556 310.869 335.89 322.398L335.036 322.989 334.183 322.398C317.517 310.868 307.567 294.017 307.567 277.321L307.567 270.07 308.831 269.87C318.248 268.38 327.013 264.135 334.02 257.67L335.036 256.733 336.053 257.67C343.06 264.135 351.824 268.38 361.241 269.87L362.505 270.07Z" fill="#FF0000"/><path d="M335.036 260.789C328.093 266.861 319.639 270.946 310.567 272.613L310.567 277.321C310.567 292.748 319.694 308.385 335.036 319.332 350.378 308.386 359.505 292.749 359.505 277.321L359.505 272.613C350.433 270.946 341.979 266.861 335.036 260.789ZM346.007 297.1 342.571 300.536 334.971 292.936 327.371 300.536 323.941 297.1 331.541 289.5 323.941 281.9 327.377 278.464 334.977 286.064 342.577 278.464 346.007 281.9 338.407 289.5Z" fill="#FF0000"/></g></svg>