<svg width="107" height="104" xmlns="http://www.w3.org/2000/svg" xmlns:xlink="http://www.w3.org/1999/xlink" xml:space="preserve" overflow="hidden"><g transform="translate(-1988 -1480)"><g><g><g><path d="M42.3917 7.75001C48.3709 14.298 56.6127 18.3325 65.4518 19.0384 67.0938 19.1923 68.3453 20.5766 68.3334 22.2259L68.3334 30.2709C68.3334 47.7584 57.2109 63.7567 41.7676 73.6559 40.7066 74.3368 39.3461 74.3368 38.285 73.6559 22.8417 63.7567 11.7192 47.7584 11.7192 30.2709L11.7192 22.2259C11.7073 20.5766 12.9588 19.1923 14.6009 19.0384 23.4399 18.3325 31.6817 14.298 37.6609 7.75001 38.7881 6.44362 40.7608 6.29832 42.0672 7.42548 42.1831 7.52555 42.2916 7.63403 42.3917 7.75001Z" fill="#A6A6A6" transform="matrix(1.0125 0 0 1 2001 1494)"/></g></g></g><g><g><g><path d="M2044.26 1510.72C2048.67 1515.54 2054.75 1518.52 2061.27 1519.04 2062.48 1519.15 2063.4 1520.18 2063.4 1521.39L2063.4 1527.32C2063.4 1540.22 2055.19 1552.02 2043.8 1559.32 2043.02 1559.82 2042.02 1559.82 2041.24 1559.32 2029.85 1552.02 2021.64 1540.22 2021.64 1527.32L2021.64 1521.39C2021.63 1520.18 2022.56 1519.15 2023.77 1519.04 2030.29 1518.52 2036.37 1515.54 2040.77 1510.72 2041.61 1509.75 2043.06 1509.64 2044.02 1510.48 2044.11 1510.55 2044.19 1510.63 2044.26 1510.72Z" fill="#FFFFFF"/></g></g></g><path d="M1991.5 1532C1991.5 1505.21 2013.89 1483.5 2041.5 1483.5 2069.11 1483.5 2091.5 1505.21 2091.5 1532 2091.5 1558.79 2069.11 1580.5 2041.5 1580.5 2013.89 1580.5 1991.5 1558.79 1991.5 1532Z" stroke="#A6A6A6" stroke-width="6.875" stroke-miterlimit="8" fill="none" fill-rule="evenodd"/><path d="M2071.5 1497.5C2071.5 1493.08 2075.31 1489.5 2080 1489.5 2084.69 1489.5 2088.5 1493.08 2088.5 1497.5 2088.5 1501.92 2084.69 1505.5 2080 1505.5 2075.31 1505.5 2071.5 1501.92 2071.5 1497.5Z" stroke="#A6A6A6" stroke-width="6.875" stroke-miterlimit="8" fill="#A6A6A6" fill-rule="evenodd"/><path d="M1995.5 1497.5C1995.5 1493.08 1999.31 1489.5 2004 1489.5 2008.69 1489.5 2012.5 1493.08 2012.5 1497.5 2012.5 1501.92 2008.69 1505.5 2004 1505.5 1999.31 1505.5 1995.5 1501.92 1995.5 1497.5Z" stroke="#A6A6A6" stroke-width="6.875" stroke-miterlimit="8" fill="#A6A6A6" fill-rule="evenodd"/><path d="M2071.5 1566.5C2071.5 1562.08 2075.31 1558.5 2080 1558.5 2084.69 1558.5 2088.5 1562.08 2088.5 1566.5 2088.5 1570.92 2084.69 1574.5 2080 1574.5 2075.31 1574.5 2071.5 1570.92 2071.5 1566.5Z" stroke="#A6A6A6" stroke-width="6.875" stroke-miterlimit="8" fill="#A6A6A6" fill-rule="evenodd"/><path d="M1995.5 1566.5C1995.5 1562.08 1999.31 1558.5 2004 1558.5 2008.69 1558.5 2012.5 1562.08 2012.5 1566.5 2012.5 1570.92 2008.69 1574.5 2004 1574.5 1999.31 1574.5 1995.5 1570.92 1995.5 1566.5Z" stroke="#A6A6A6" stroke-width="6.875" stroke-miterlimit="8" fill="#A6A6A6" fill-rule="evenodd"/><text fill="#A6A6A6" font-family="Aptos,Aptos_MSFontService,sans-serif" font-weight="700" font-size="37" transform="matrix(1 0 0 1 2032.21 1546)">?</text></g></svg>