<svg width="107" height="105" xmlns="http://www.w3.org/2000/svg" xmlns:xlink="http://www.w3.org/1999/xlink" xml:space="preserve" overflow="hidden"><g transform="translate(-1817 -1482)"><g><g><g><path d="M42.3915 7.74997C48.3707 14.298 56.6124 18.3324 65.4514 19.0383 67.0935 19.1922 68.345 20.5765 68.3331 22.2258L68.3331 30.2707C68.3331 47.7582 57.2106 63.7565 41.7674 73.6556 40.7064 74.3364 39.3459 74.3364 38.2849 73.6556 22.8416 63.7565 11.7191 47.7582 11.7191 30.2707L11.7191 22.2258C11.7072 20.5765 12.9587 19.1922 14.6008 19.0383 23.4398 18.3324 31.6816 14.298 37.6607 7.74997 38.7879 6.4436 40.7606 6.2983 42.067 7.42544 42.1829 7.52552 42.2914 7.63399 42.3915 7.74997Z" fill="#FFC000" transform="matrix(1 0 0 1 1830 1497)"/></g></g></g><g><g><g><path d="M31.2637 5.7156C35.6733 10.5447 41.7516 13.5202 48.2704 14.0407 49.4814 14.1542 50.4044 15.1752 50.3956 16.3915L50.3956 22.3247C50.3956 35.2216 42.1928 47.0204 30.8034 54.321 30.0209 54.8231 29.0176 54.8231 28.2351 54.321 16.8457 47.0204 8.64285 35.2216 8.64285 22.3247L8.64285 16.3915C8.63406 15.1752 9.55704 14.1542 10.7681 14.0407 17.2869 13.5202 23.3651 10.5447 27.7748 5.7156 28.606 4.75215 30.0609 4.64499 31.0244 5.47626 31.1099 5.55007 31.1899 5.63007 31.2637 5.7156Z" fill="#FFFFFF" transform="matrix(1 0 0 1.00001 1841 1507)"/></g></g></g><g><g><g><path d="M29.2562 25.8333 16.6302 3.87499C16.1458 3.00312 14.8864 3.00312 14.4021 3.87499L1.74375 25.8333C1.25937 26.7052 1.87291 27.7708 2.87395 27.7708L15.5 27.7708 28.126 27.7708C29.127 27.7708 29.7406 26.7052 29.2562 25.8333ZM14.5312 9.04165 16.4687 9.04165 16.4687 20.3437 14.5312 20.3437 14.5312 9.04165ZM15.5 24.8645C14.5958 24.8645 13.8854 24.1541 13.8854 23.25 13.8854 22.3458 14.5958 21.6354 15.5 21.6354 16.4041 21.6354 17.1145 22.3458 17.1145 23.25 17.1145 24.1541 16.4041 24.8645 15.5 24.8645Z" fill="#FFC000" transform="matrix(1.03226 0 0 1 1855 1517)"/></g></g></g><path d="M1820.5 1534.5C1820.5 1507.44 1842.89 1485.5 1870.5 1485.5 1898.11 1485.5 1920.5 1507.44 1920.5 1534.5 1920.5 1561.56 1898.11 1583.5 1870.5 1583.5 1842.89 1583.5 1820.5 1561.56 1820.5 1534.5Z" stroke="#FFC000" stroke-width="6.875" stroke-miterlimit="8" fill="none" fill-rule="evenodd"/><path d="M1899.5 1500C1899.5 1495.31 1903.31 1491.5 1908 1491.5 1912.69 1491.5 1916.5 1495.31 1916.5 1500 1916.5 1504.69 1912.69 1508.5 1908 1508.5 1903.31 1508.5 1899.5 1504.69 1899.5 1500Z" stroke="#FFC000" stroke-width="6.875" stroke-miterlimit="8" fill="#FFC000" fill-rule="evenodd"/><path d="M1823.5 1500C1823.5 1495.31 1827.31 1491.5 1832 1491.5 1836.69 1491.5 1840.5 1495.31 1840.5 1500 1840.5 1504.69 1836.69 1508.5 1832 1508.5 1827.31 1508.5 1823.5 1504.69 1823.5 1500Z" stroke="#FFC000" stroke-width="6.875" stroke-miterlimit="8" fill="#FFC000" fill-rule="evenodd"/><path d="M1899.5 1569C1899.5 1564.31 1903.31 1560.5 1908 1560.5 1912.69 1560.5 1916.5 1564.31 1916.5 1569 1916.5 1573.69 1912.69 1577.5 1908 1577.5 1903.31 1577.5 1899.5 1573.69 1899.5 1569Z" stroke="#FFC000" stroke-width="6.875" stroke-miterlimit="8" fill="#FFC000" fill-rule="evenodd"/><path d="M1823.5 1569C1823.5 1564.31 1827.31 1560.5 1832 1560.5 1836.69 1560.5 1840.5 1564.31 1840.5 1569 1840.5 1573.69 1836.69 1577.5 1832 1577.5 1827.31 1577.5 1823.5 1573.69 1823.5 1569Z" stroke="#FFC000" stroke-width="6.875" stroke-miterlimit="8" fill="#FFC000" fill-rule="evenodd"/></g></svg>