<svg width="330" height="330" xmlns="http://www.w3.org/2000/svg" xmlns:xlink="http://www.w3.org/1999/xlink" xml:space="preserve" overflow="hidden"><defs><clipPath id="clip0"><rect x="454" y="1778" width="330" height="330"/></clipPath><clipPath id="clip1"><rect x="498" y="1821" width="243" height="243"/></clipPath><clipPath id="clip2"><rect x="498" y="1821" width="243" height="243"/></clipPath><clipPath id="clip3"><rect x="498" y="1821" width="243" height="243"/></clipPath><clipPath id="clip4"><rect x="554" y="1861" width="130" height="130"/></clipPath><clipPath id="clip5"><rect x="554" y="1861" width="130" height="130"/></clipPath><clipPath id="clip6"><rect x="554" y="1861" width="130" height="130"/></clipPath></defs><g clip-path="url(#clip0)" transform="translate(-454 -1778)"><path d="M628.866 1809.97C653.53 1836.98 687.527 1853.62 723.988 1856.53 730.762 1857.17 735.924 1862.88 735.875 1869.68L735.875 1902.87C735.875 1975 689.995 2041 626.291 2081.83 621.914 2084.64 616.302 2084.64 611.926 2081.83 548.222 2041 502.342 1975 502.342 1902.87L502.342 1869.68C502.293 1862.88 507.455 1857.17 514.229 1856.53 550.69 1853.62 584.687 1836.98 609.351 1809.97 614.001 1804.58 622.138 1803.98 627.527 1808.63 628.005 1809.04 628.453 1809.49 628.866 1809.97Z" fill="#FFC000"/><g clip-path="url(#clip1)"><g clip-path="url(#clip2)"><g clip-path="url(#clip3)"><path d="M626.235 1845.44C644.322 1865.25 669.253 1877.46 695.991 1879.59 700.959 1880.06 704.744 1884.24 704.708 1889.23L704.708 1913.57C704.708 1966.47 671.063 2014.86 624.347 2044.81 621.137 2046.87 617.022 2046.87 613.812 2044.81 567.096 2014.86 533.451 1966.47 533.451 1913.57L533.451 1889.23C533.415 1884.24 537.2 1880.06 542.168 1879.59 568.906 1877.46 593.837 1865.25 611.924 1845.44 615.334 1841.49 621.301 1841.05 625.253 1844.46 625.604 1844.76 625.932 1845.09 626.235 1845.44Z" fill="#FFFFFF"/></g></g></g><g clip-path="url(#clip4)"><g clip-path="url(#clip5)"><g clip-path="url(#clip6)"><path d="M121.744 107.5 69.2031 16.125C67.1874 12.4969 61.9468 12.4969 59.9312 16.125L7.25624 107.5C5.24062 111.128 7.79374 115.562 11.9594 115.562L64.4999 115.562 117.041 115.562C121.206 115.562 123.759 111.128 121.744 107.5ZM60.4687 37.625 68.5312 37.625 68.5312 84.6562 60.4687 84.6562 60.4687 37.625ZM64.4999 103.469C60.7375 103.469 57.7812 100.512 57.7812 96.7499 57.7812 92.9874 60.7375 90.0312 64.4999 90.0312 68.2624 90.0312 71.2187 92.9874 71.2187 96.7499 71.2187 100.512 68.2624 103.469 64.4999 103.469Z" fill="#FFC000" transform="matrix(1 0 0 1.00775 554 1861)"/></g></g></g></g></svg>