<svg width="96" height="96" xmlns="http://www.w3.org/2000/svg" xmlns:xlink="http://www.w3.org/1999/xlink" xml:space="preserve" overflow="hidden"><g transform="translate(-205 -132)"><path d="M228 152 239 152 239 158 267 158 267 152 278 152 278 214 228 214 228 152ZM253.1 144C254.7 144 256 145.4 256 147 256 148.7 254.7 150 253 150 251.3 150 250 148.7 250 147 250 145.3 251.3 144 253.1 144ZM222 150 222 216C222 218.2 223.8 220 226 220L280 220C282.2 220 284 218.2 284 216L284 150C284 147.8 282.2 146 280 146L263 146 263 144C263 141.8 261.2 140 259 140L247 140C244.8 140 243 141.8 243 144L243 146 226 146C223.8 146 222 147.8 222 150Z" fill="#E97132"/><path d="M234 166 251 166 251 170 234 170Z" fill="#E97132"/><path d="M234 178 251 178 251 182 234 182Z" fill="#E97132"/><path d="M234 190 251 190 251 194 234 194Z" fill="#E97132"/><path d="M234 202 251 202 251 206 234 206Z" fill="#E97132"/><path d="M257.9 167.8 260 165.7 262.6 168.3 269.2 161.7 271.3 163.8 262.6 172.5Z" fill="#E97132"/><path d="M257.9 179.8 260 177.7 262.6 180.3 269.2 173.7 271.3 175.8 262.6 184.5Z" fill="#E97132"/><path d="M257.9 191.8 260 189.7 262.6 192.3 269.2 185.7 271.3 187.8 262.6 196.5Z" fill="#E97132"/><path d="M257.9 203.8 260 201.7 262.6 204.3 269.2 197.7 271.3 199.8 262.6 208.5Z" fill="#E97132"/></g></svg>